<svg width="121" height="150" viewBox="0 0 121 150" fill="none" xmlns="http://www.w3.org/2000/svg">
<path d="M57.4341 150C33.2997 150 10.9983 135.642 0.916846 113.646C-0.916147 109.98 0.916846 105.703 4.58283 103.87C8.24882 102.037 12.5258 103.87 14.3588 107.536C21.9963 124.338 39.1042 135.336 57.7396 135.336C84.0125 135.336 105.397 113.951 105.397 87.6782C105.397 80.0408 102.648 71.7923 98.0655 66.5988C95.6215 63.5438 95.927 58.9613 98.982 56.2119C102.037 53.4624 106.619 54.0734 109.369 57.1284C116.09 65.0713 120.061 76.3748 120.061 87.6782C119.756 122.2 91.65 150 57.4341 150Z" fill="#60BDB2"/>
<path d="M57.129 121.894C47.353 121.894 38.1881 117.923 29.9396 109.98C26.8846 107.23 26.8846 102.648 29.6341 99.5927C32.3836 96.5377 36.9661 96.5377 40.021 99.2872C45.8255 105.092 51.9355 107.536 58.351 106.925C63.5445 106.619 68.1269 104.175 71.7929 100.204C75.1534 96.2322 76.9864 91.3443 76.6809 86.1508C76.3754 79.4298 70.8764 73.9308 59.573 68.4319C55.907 66.5989 54.3795 62.3219 56.2125 58.6559C58.0455 54.9899 62.3225 53.4624 65.9885 55.2954C72.0984 58.0449 90.1229 66.9044 91.3449 85.2343C92.5669 103.87 78.2084 120.367 59.573 121.589C58.6565 121.894 57.74 121.894 57.129 121.894Z" fill="#60BDB2"/>
<path d="M17.1079 95.0102C15.2749 95.0102 13.4419 94.3992 12.22 93.1772C5.19348 86.7617 0 73.9307 0 62.3218C0 28.1059 28.1059 0 62.3218 0C86.7617 0 109.063 14.3584 119.145 36.3544C120.978 40.0204 119.145 44.2973 115.479 46.1303C111.813 47.9633 107.536 46.1303 105.703 42.4643C98.0651 25.6619 80.9572 14.6639 62.3218 14.6639C36.0489 14.6639 14.6639 36.0489 14.6639 62.3218C14.6639 69.6537 18.0244 78.5132 21.9959 82.4847C25.0509 85.2342 25.0509 89.8167 22.3014 92.8717C21.0794 94.3992 19.2464 95.0102 17.1079 95.0102Z" fill="#60BDB2"/>
<path d="M57.1275 95.9268C56.211 95.9268 54.989 95.6213 54.0725 95.3158C32.9931 85.2343 28.4106 72.0979 28.4106 62.6274C28.4106 53.4625 31.7711 44.9085 38.1866 38.493C44.6021 32.0775 53.156 28.4116 62.321 28.4116C72.708 28.4116 81.2619 32.0775 89.5104 40.0205C92.2599 42.77 92.5654 47.3525 89.5104 50.4075C86.7609 53.157 82.1784 53.4625 79.1234 50.4075C73.6245 45.214 68.7365 42.77 62.321 42.77C57.1275 42.77 52.2396 44.9085 48.5736 48.5745C44.9076 52.2405 42.7691 57.1284 42.7691 62.3219C42.7691 69.9594 48.5736 76.3749 59.877 81.8739C63.543 83.7068 65.0705 87.9838 63.2375 91.6498C62.6265 94.3993 59.877 95.9268 57.1275 95.9268Z" fill="#60BDB2"/>
</svg>
